:SAMPLES-PER-SECOND 30
:FRAME-RANGE 1-4244
:FULLY-SPECIFIED
:DEGREES
1725
root  51.287 29.475 20.6264 18.6012 21.039 4.26404
RightUpLeg  -65.8883 13.2586 -29.8383
RightLeg  83.7996 1.81149 20.0231
RightFoot  -35.0032 1.93272 10.3471
RightToes  -1.33073e-015 0 -3.6325e-017
Spine  27.4362 0.685037 -2.86808
Spine1  41.6757 -0.441986 1.94851
HEad  -20.8474 -20.5859 15.8459
LeftShoulder1  1.17502 -11.0274 0.0151505
LeftArm  -48.7662 -47.1796 -1.79395
LeftForeArm  24.0906 -3.6048 -1.18901
LeftHand  -0.101251 3.09286 4.43511
RightShoulder  0.550101 6.89591 -3.40664
RightArm  -47.2661 56.8476 17.975
RightForeArm  51.5077 0.613894 -3.37064
RightHand  0.067641 -5.76395 -23.1446
LeftUpLeg  -73.3348 10.9673 19.0128
LeftLeg  57.0813 1.29583 2.72159
LeftFoot  -4.39973 0.799197 -12.7023
LeftToes  2.72522e-012 8.43823e-011 6.24977e-012
1726
root  52.8791 29.0828 21.5957 20.1549 22.6496 5.98438
RightUpLeg  -61.8015 12.0424 -32.8458
RightLeg  84.6567 1.51783 20.3132
RightFoot  -40.722 2.64011 11.1121
RightToes  -1.33073e-015 0 -3.6325e-017
Spine  26.348 0.141244 -3.24497
Spine1  41.3493 -0.0831657 -0.245862
HEad  -20.8907 -23.9334 20.9683
LeftShoulder1  1.15315 -10.0624 -0.474296
LeftArm  -44.0096 -44.9998 -5.54814
LeftForeArm  21.4242 -5.39027 -2.4744
LeftHand  -0.121148 2.45859 4.3855
RightShoulder  0.483305 7.18935 -4.30512
RightArm  -51.2981 61.6345 14.2579
RightForeArm  51.837 -0.205185 -4.34437
RightHand  -0.0260946 -5.29733 -20.3346
LeftUpLeg  -74.3482 10.4152 14.9372
LeftLeg  40.8684 0.632077 0.996457
LeftFoot  3.63796 -0.344654 2.45355
LeftToes  2.72522e-012 8.43823e-011 6.24977e-012
1727
root  54.8292 28.326 22.5379 19.5915 22.6083 6.2926
RightUpLeg  -57.5503 12.5754 -35.5419
RightLeg  86.5379 0.869224 21.8507
RightFoot  -45.7284 3.09968 11.0155
RightToes  -1.33073e-015 0 -3.6325e-017
Spine  25.1155 -0.508961 -1.79328
Spine1  41.7961 0.993977 -3.63855
HEad  -21.6285 -27.6505 26.0611
LeftShoulder1  1.09414 -9.57988 -0.32146
LeftArm  -37.882 -43.2828 -10.4667
LeftForeArm  21.2297 -5.69215 -3.93668
LeftHand  -0.132771 2.31197 4.64853
RightShoulder  0.494297 8.28175 -4.67692
RightArm  -54.4632 65.9816 10.4741
RightForeArm  51.3169 -1.53999 -4.63221
RightHand  0.0304397 -5.64185 -19.2309
LeftUpLeg  -73.0927 9.25701 11.0551
LeftLeg  34.6755 -1.30216 -0.590635
LeftFoot  2.02803 -3.12791 26.0979
LeftToes  2.72522e-012 8.43823e-011 6.24977e-012
1728
root  56.6465 27.6008 23.2315 17.5075 21.2961 5.71515
RightUpLeg  -55.4392 15.17 -38.5807
RightLeg  89.6977 -0.497752 24.8846
RightFoot  -46.2161 3.56879 12.3457
RightToes  -1.33073e-015 0 -3.6325e-017
Spine  24.5641 -1.30138 -1.09348
Spine1  42.3016 2.24693 -7.4332
HEad  -21.823 -30.677 28.9471
LeftShoulder1  0.942452 -8.2244 0.0383568
LeftArm  -31.8774 -41.4542 -17.3127
LeftForeArm  22.5554 -4.66772 -4.96442
LeftHand  -0.128197 2.27185 4.42038
RightShoulder  0.523949 11.328 -5.42926
RightArm  -58.5563 70.4793 4.67247
RightForeArm  52.1858 -4.50421 -4.68715
RightHand  0.129299 -6.2392 -19.2874
LeftUpLeg  -73.0065 8.05799 14.4796
LeftLeg  37.2791 -5.6646 -4.22265
LeftFoot  14.292 4.70889 -20.8879
LeftToes  2.72522e-012 8.43823e-011 6.24977e-012
1729
root  58.7011 26.7183 24.0411 16.1626 19.6125 4.62958
RightUpLeg  -55.0468 17.4071 -42.3647
RightLeg  93.0181 -2.49222 29.0332
RightFoot  -44.4902 3.61659 13.1404
RightToes  -1.33073e-015 0 -3.6325e-017
Spine  23.3983 -1.64762 0.638076
Spine1  41.3773 2.86584 -9.5771
HEad  -23.613 -32.483 31.5394
LeftShoulder1  0.873606 -7.64032 0.257644
LeftArm  -27.4083 -39.1623 -23.6105
LeftForeArm  22.6259 -3.30246 -5.51139
LeftHand  -0.106833 2.21106 3.54646
RightShoulder  0.576942 13.0778 -5.48384
RightArm  -64.9091 76.5391 1.01099
RightForeArm  57.4155 -4.1725 -5.66883
RightHand  0.148774 -6.46848 -17.5602
LeftUpLeg  -77.2789 8.62896 14.1643
LeftLeg  46.8325 -6.77564 -7.24766
LeftFoot  14.4404 4.91841 -21.6583
LeftToes  2.72522e-012 8.43823e-011 6.24977e-012
1730
root  60.5363 26.2729 24.6854 14.605 18.4411 5.4361
RightUpLeg  -53.2044 18.9913 -46.0113
RightLeg  95.0656 -3.81076 30.1013
RightFoot  -40.9767 3.76262 15.2173
RightToes  -1.33073e-015 0 -3.6325e-017
Spine  23.4809 -2.01262 0.597909
Spine1  40.9058 2.8977 -11.222
HEad  -25.9768 -33.1846 34.9669
LeftShoulder1  0.949623 -7.88872 -0.314105
LeftArm  -23.004 -38.8537 -25.8227
LeftForeArm  21.5088 -0.273429 -6.61005
LeftHand  -0.08793 2.38781 2.97523
RightShoulder  0.959619 14.5986 -3.37032
RightArm  -76.89 82.7519 -8.30249
RightForeArm  58.9898 -4.021 -6.23656
RightHand  0.189358 -6.80943 -16.7927
LeftUpLeg  -77.9945 7.47306 13.5985
LeftLeg  51.9533 -4.5165 -5.6914
LeftFoot  12.6747 4.31301 -20.4573
LeftToes  2.72522e-012 8.43823e-011 6.24977e-012
1731
root  62.289 26.036 25.2182 12.7793 17.6765 5.09729
RightUpLeg  -50.4997 19.2431 -46.2368
RightLeg  95.9866 -3.81828 27.1822
RightFoot  -38.064 4.47745 19.784
RightToes  -1.33073e-015 0 -3.6325e-017
Spine  24.5261 -2.4643 1.44368
Spine1  38.9455 2.53279 -12.0066
HEad  -25.7325 -33.8428 36.9573
LeftShoulder1  0.912817 -7.47859 -0.293104
LeftArm  -21.1517 -38.6717 -30.152
LeftForeArm  24.6292 1.79481 -6.6435
LeftHand  -0.0728472 2.78904 2.65966
RightShoulder  1.15376 15.2407 -2.38352
RightArm  -68.1247 88.477 4.2792
RightForeArm  56.3372 -4.02019 -5.80656
RightHand  0.324029 -7.65747 -17.4169
LeftUpLeg  -77.8246 6.89858 13.8044
LeftLeg  54.9148 -3.67584 -5.10377
LeftFoot  11.3615 3.99477 -20.07
LeftToes  2.72522e-012 8.43823e-011 6.24977e-012
1732
root  63.8987 25.9059 25.6677 11.6893 16.1508 4.29126
RightUpLeg  -48.7272 18.8324 -45.3913
RightLeg  95.6396 -2.75019 21.711
RightFoot  -37.3712 4.83552 21.8025
RightToes  -1.33073e-015 0 -3.6325e-017
Spine  24.9835 -2.89437 1.65014
Spine1  36.1385 2.21494 -12.9523
HEad  -23.2943 -33.8167 37.3095
LeftShoulder1  0.836802 -7.08532 0.175207
LeftArm  -19.8617 -36.835 -34.811
LeftForeArm  24.2018 1.95687 -6.52047
LeftHand  -0.0791773 2.99222 3.15892
RightShoulder  1.47551 15.9908 -0.754975
RightArm  70.4961 85.521 145.064
RightForeArm  53.8832 -0.515244 -2.71664
RightHand  0.431174 -8.29074 -17.8912
LeftUpLeg  -77.96 7.39581 14.0765
LeftLeg  57.3626 -3.32797 -5.04806
LeftFoot  10.2153 3.58537 -19.0136
LeftToes  2.72522e-012 8.43823e-011 6.24977e-012
1733
root  65.4439 26.0936 26.0341 9.57114 14.347 4.56335
RightUpLeg  -45.6653 20.3681 -45.713
RightLeg  93.9877 -1.52318 16.9191
RightFoot  -34.6934 4.77266 23.9371
RightToes  -1.33073e-015 0 -3.6325e-017
Spine  27.8144 -2.75488 0.472753
Spine1  32.1372 1.43628 -12.6511
HEad  -20.0849 -34.4981 37.2919
LeftShoulder1  0.913874 -7.31592 -0.452149
LeftArm  -17.9648 -35.5264 -37.1384
LeftForeArm  22.5642 1.39715 -7.05851
LeftHand  -0.0912855 2.81437 3.5394
RightShoulder  1.99539 16.6678 1.91138
RightArm  65.0786 80.5418 139.838
RightForeArm  59.5763 4.30679 1.77071
RightHand  0.151428 -6.68867 -15.1492
LeftUpLeg  -76.2238 7.8719 12.0653
LeftLeg  60.839 -3.01761 -5.24847
LeftFoot  6.00718 2.87856 -18.9591
LeftToes  2.72522e-012 8.43823e-011 6.24977e-012
1734
root  66.9802 26.3153 26.3323 8.4642 12.6653 3.47949
RightUpLeg  -43.9587 20.9876 -45.5969
RightLeg  91.2612 -0.546379 14.4734
RightFoot  -31.3239 4.51893 26.4415
RightToes  -1.33073e-015 0 -3.6325e-017
Spine  29.8093 -3.08947 0.725786
Spine1  27.3614 0.703885 -12.5186
HEad  -17.8714 -35.057 37.2118
LeftShoulder1  0.958027 -7.45508 -0.79251
LeftArm  -17.1305 -34.024 -40.5154
LeftForeArm  23.4734 0.348459 -7.11052
LeftHand  -0.104221 2.553 3.80369
RightShoulder  2.43964 16.6347 4.45352
RightArm  61.9868 75.832 133.524
RightForeArm  68.2023 9.99579 6.99458
RightHand  0.104832 -6.34408 -14.895
LeftUpLeg  -76.1714 8.18628 10.6156
LeftLeg  65.3375 -2.51159 -5.27041
LeftFoot  1.96363 1.92116 -16.4791
LeftToes  2.72522e-012 8.43823e-011 6.24977e-012
1735
root  68.5366 26.7 26.5899 7.97011 10.8257 2.12445
RightUpLeg  -42.1075 19.4597 -44.4449
RightLeg  86.4457 0.561603 10.1433
RightFoot  -30.2835 3.78944 23.654
RightToes  -1.33073e-015 0 -3.6325e-017
Spine  32.1941 -3.396 1.29315
Spine1  21.4893 -0.145007 -11.6307
HEad  -16.2829 -35.8055 36.7368
LeftShoulder1  1.14325 -8.13247 -2.03359
LeftArm  -16.9636 -32.5543 -42.7807
LeftForeArm  24.0685 -0.994149 -7.08004
LeftHand  -0.132565 2.23595 4.54016
RightShoulder  2.83731 16.4835 6.82407
RightArm  77.9143 70.6045 124.755
RightForeArm  52.8387 20.6799 4.4799
RightHand  0.235799 -7.3767 -14.9381
LeftUpLeg  -75.8473 8.35629 9.48381
LeftLeg  68.0712 -1.76485 -4.03749
LeftFoot  -0.0900639 1.35188 -13.6678
LeftToes  2.72522e-012 8.43823e-011 6.24977e-012
